<svg xmlns="http://www.w3.org/2000/svg" viewBox="0 0 512 512" width="512" height="512">
  <!-- Hand-drawn app icon: cozy doodled paper + the app's crossed-swords icon
       (same paths as ICONS.swords in js/icons.js, scaled up).
       Full-bleed background; swords stay inside the maskable safe zone. -->
  <rect width="512" height="512" fill="#faf7f0"/>

  <!-- cozy background doodles (same shapes as the drifting page background) -->
  <g fill="none" stroke="#211e1a" stroke-width="5" stroke-linecap="round" opacity="0.12">
    <path d="M84 62l1.3 47M61 85l47 1.3"/>
    <path d="M388 96c11-11 19 11 30 0"/>
    <path d="M446 286c7.3-.4 13.3 5.8 12.9 12.9.4 7.3-5.6 13.3-12.9 12.9-7.1.4-13.1-5.6-12.9-12.9-.2-7.1 5.8-13.3 12.9-12.9z"/>
    <path d="M96 396c11-11 19 11 30 0"/>
    <path d="M430 412l.9 30M416 427l30 .9"/>
    <path d="M404 44l.4.4"/>
    <path d="M60 300l.4.4"/>
  </g>

  <!-- crossed swords, centered -->
  <g transform="translate(82 82) scale(14.5)" fill="none" stroke="#211e1a" stroke-width="1.9" stroke-linecap="round" stroke-linejoin="round">
    <path d="M5.1 5c3.4 3.3 6.7 6.7 10 10.1"/>
    <path d="M18.9 5.2c-3.3 3.3-6.6 6.6-9.9 10"/>
    <path d="M13.5 17.5l4.1-4.2"/>
    <path d="M6.4 13.3l4.1 4.2"/>
    <path d="M16.1 18.1l2.7 2.7"/>
    <path d="M7.9 18.1l-2.7 2.7"/>
  </g>
</svg>
